<svg width="130" height="96" viewBox="0 0 130 96" fill="none" xmlns="http://www.w3.org/2000/svg">
<path d="M0.101563 96C0.101563 93.0667 0.101563 90.2667 0.101563 87.6C0.101563 84.6667 0.234897 81.8666 0.501564 79.2C1.56823 65.3333 4.6349 51.6 9.70157 38C14.7682 24.4 20.9016 11.7333 28.1016 -2.00272e-05L56.9016 9.19998C51.3016 20.9333 47.0349 32.8 44.1016 44.8C41.4349 56.8 40.1016 68 40.1016 78.4C40.1016 81.0667 40.1016 84 40.1016 87.2C40.3682 90.1333 40.6349 93.0667 40.9016 96H0.101563ZM72.9016 96C72.9016 93.0667 72.9016 90.2667 72.9016 87.6C72.9016 84.6667 73.0349 81.8666 73.3016 79.2C74.3682 65.3333 77.4349 51.6 82.5016 38C87.5682 24.4 93.7016 11.7333 100.902 -2.00272e-05L129.702 9.19998C124.102 20.9333 119.835 32.8 116.902 44.8C114.235 56.8 112.902 68 112.902 78.4C112.902 81.0667 112.902 84 112.902 87.2C113.168 90.1333 113.435 93.0667 113.702 96H72.9016Z" fill="white" fill-opacity="0.5"/>
</svg>
